<?xml version="1.0" standalone="no"?>
<!DOCTYPE svg PUBLIC "-//W3C//DTD SVG 20010904//EN"
 "http://www.w3.org/TR/2001/REC-SVG-20010904/DTD/svg10.dtd">
<svg version="1.0" xmlns="http://www.w3.org/2000/svg"
 width="2000.000000pt" height="2000.000000pt" viewBox="0 0 2000.000000 2000.000000"
 preserveAspectRatio="xMidYMid meet">
<metadata>
Created by potrace 1.16, written by Peter Selinger 2001-2019
</metadata>
<g transform="translate(0.000000,2000.000000) scale(0.100000,-0.100000)"
fill="#000000" stroke="none">
<path d="M9775 19940 c-4 -6 -71 -10 -169 -10 -123 0 -166 -3 -175 -13 -8 -10
-50 -14 -158 -16 -82 -1 -152 -6 -157 -12 -6 -5 -60 -9 -122 -9 -87 0 -114 -3
-124 -15 -9 -11 -33 -15 -91 -15 -43 0 -81 -4 -84 -10 -3 -6 -49 -10 -104 -10
-59 0 -101 -4 -108 -11 -6 -6 -44 -14 -83 -17 -39 -2 -73 -9 -76 -13 -3 -5
-27 -9 -54 -9 -27 0 -52 -4 -55 -10 -3 -5 -30 -10 -59 -10 -35 0 -58 -5 -66
-15 -9 -10 -32 -15 -76 -15 -34 0 -66 -4 -69 -10 -3 -5 -30 -10 -59 -10 -35 0
-58 -5 -66 -15 -7 -9 -29 -15 -51 -15 -21 0 -41 -4 -44 -10 -3 -5 -23 -10 -43
-10 -20 0 -46 -7 -56 -15 -11 -8 -37 -15 -57 -15 -21 0 -41 -4 -44 -10 -3 -5
-23 -10 -43 -10 -20 0 -46 -7 -56 -15 -11 -8 -34 -15 -52 -15 -18 0 -36 -4
-39 -10 -3 -5 -18 -10 -33 -10 -15 0 -36 -7 -46 -15 -11 -8 -29 -15 -41 -15
-12 0 -26 -5 -31 -10 -6 -6 -26 -12 -45 -13 -19 -2 -44 -8 -56 -15 -12 -7 -37
-12 -55 -12 -18 0 -42 -7 -52 -15 -11 -8 -26 -15 -34 -15 -7 0 -37 -11 -65
-24 -66 -30 -117 -46 -148 -46 -13 0 -33 -7 -43 -15 -11 -8 -29 -15 -40 -15
-12 0 -41 -11 -65 -25 -23 -14 -49 -25 -57 -25 -8 0 -37 -11 -64 -25 -27 -14
-58 -25 -69 -25 -11 0 -23 -4 -26 -10 -3 -5 -13 -10 -21 -10 -8 0 -37 -11 -66
-25 -28 -14 -57 -25 -64 -25 -7 0 -35 -11 -62 -25 -28 -14 -55 -25 -62 -25
-10 0 -107 -46 -192 -91 -10 -5 -23 -9 -30 -9 -18 0 -709 -348 -733 -369 -11
-10 -54 -34 -95 -55 -41 -21 -84 -46 -95 -55 -11 -10 -50 -32 -87 -50 -36 -18
-74 -41 -84 -52 -9 -10 -21 -19 -27 -19 -5 0 -22 -10 -37 -22 -15 -13 -42 -32
-61 -43 -18 -11 -41 -25 -51 -31 -10 -6 -29 -20 -41 -31 -12 -11 -43 -30 -68
-42 -26 -12 -54 -30 -64 -41 -10 -11 -23 -20 -30 -20 -6 0 -22 -11 -35 -25
-13 -14 -28 -25 -34 -25 -6 0 -28 -16 -48 -35 -20 -19 -43 -35 -51 -35 -7 0
-24 -11 -37 -25 -13 -14 -29 -25 -35 -25 -6 0 -22 -11 -35 -25 -13 -14 -30
-25 -37 -25 -8 0 -24 -11 -36 -23 -12 -13 -40 -35 -62 -49 -22 -14 -56 -42
-74 -62 -19 -20 -39 -36 -44 -36 -6 0 -29 -18 -53 -40 -24 -22 -49 -40 -55
-40 -6 0 -26 -15 -43 -34 -18 -18 -50 -45 -72 -59 -21 -14 -61 -48 -89 -76
-27 -28 -54 -51 -60 -51 -6 0 -37 -27 -70 -60 -33 -33 -65 -60 -71 -60 -15 0
-806 -802 -815 -827 -4 -10 -44 -56 -89 -102 -45 -47 -92 -101 -105 -120 -13
-20 -39 -52 -59 -70 -20 -19 -36 -41 -36 -49 0 -7 -22 -37 -50 -66 -27 -29
-50 -58 -50 -64 0 -6 -26 -40 -58 -74 -32 -35 -75 -91 -96 -124 -20 -34 -51
-74 -67 -90 -16 -15 -29 -34 -29 -41 0 -8 -11 -26 -25 -41 -14 -15 -25 -32
-25 -37 0 -6 -16 -26 -35 -45 -19 -19 -35 -40 -35 -48 0 -7 -16 -30 -35 -50
-19 -20 -35 -42 -35 -48 0 -6 -7 -17 -15 -24 -8 -7 -15 -21 -15 -30 0 -10 -4
-20 -9 -22 -9 -3 -58 -75 -83 -122 -9 -18 -23 -38 -32 -45 -9 -8 -16 -19 -16
-25 0 -7 -11 -23 -25 -36 -14 -13 -25 -30 -25 -37 0 -7 -23 -49 -50 -93 -28
-44 -50 -83 -50 -86 0 -3 -9 -19 -21 -36 -12 -16 -35 -57 -52 -91 -17 -34 -40
-75 -52 -92 -11 -16 -27 -43 -34 -60 -7 -16 -17 -37 -22 -45 -9 -17 -34 -67
-43 -90 -3 -8 -15 -28 -25 -45 -11 -16 -20 -37 -20 -47 -1 -9 -4 -18 -8 -20
-10 -4 -43 -66 -43 -79 0 -6 -9 -20 -20 -32 -26 -27 -50 -75 -50 -98 0 -19
-31 -82 -42 -87 -5 -2 -8 -10 -8 -17 0 -8 -11 -35 -25 -61 -14 -26 -25 -53
-25 -61 0 -7 -4 -21 -9 -31 -47 -91 -91 -186 -91 -198 0 -14 -4 -23 -34 -81
-9 -17 -16 -38 -16 -46 0 -9 -16 -46 -35 -83 -19 -37 -35 -77 -35 -90 0 -12
-4 -26 -10 -29 -5 -3 -10 -14 -10 -24 0 -10 -7 -24 -15 -31 -8 -7 -15 -25 -15
-41 0 -15 -4 -31 -10 -34 -5 -3 -10 -16 -10 -29 0 -12 -7 -31 -15 -42 -8 -10
-15 -31 -15 -46 0 -16 -4 -28 -10 -28 -5 0 -10 -15 -10 -34 0 -18 -7 -39 -15
-46 -8 -7 -15 -25 -15 -41 0 -16 -4 -29 -10 -29 -5 0 -10 -11 -10 -24 0 -13
-6 -37 -14 -53 -21 -43 -36 -96 -36 -131 0 -17 -5 -34 -10 -37 -6 -3 -10 -18
-10 -33 0 -15 -7 -36 -15 -46 -8 -11 -15 -30 -15 -42 0 -13 -5 -26 -10 -29 -6
-3 -10 -23 -10 -44 0 -20 -7 -46 -15 -57 -8 -10 -15 -36 -15 -56 0 -20 -4 -40
-10 -43 -5 -3 -10 -26 -10 -49 0 -27 -6 -48 -15 -56 -9 -8 -15 -30 -15 -56 0
-24 -4 -44 -10 -44 -5 0 -10 -20 -10 -44 0 -25 -4 -47 -9 -50 -5 -3 -12 -26
-15 -51 -4 -24 -11 -47 -17 -50 -5 -4 -9 -37 -9 -75 0 -38 -4 -72 -10 -75 -5
-3 -10 -30 -10 -59 0 -35 -5 -58 -15 -66 -10 -8 -15 -31 -15 -66 0 -29 -4 -56
-10 -59 -5 -3 -10 -27 -10 -53 -1 -26 -7 -58 -15 -72 -10 -17 -14 -57 -15
-122 0 -53 -4 -100 -10 -103 -5 -3 -10 -45 -10 -93 -1 -61 -5 -93 -15 -106
-11 -14 -15 -47 -15 -117 0 -55 -4 -101 -10 -104 -6 -4 -10 -63 -10 -145 0
-76 -4 -141 -8 -144 -5 -3 -12 -94 -15 -203 -4 -108 -12 -202 -17 -207 -14
-14 -13 -409 1 -423 7 -7 13 -80 16 -195 2 -100 8 -192 13 -203 6 -11 12 -76
14 -145 10 -244 21 -369 34 -382 7 -7 12 -41 12 -89 0 -43 5 -81 10 -84 6 -3
10 -49 10 -104 0 -70 4 -103 15 -117 8 -10 15 -40 15 -66 0 -26 5 -50 10 -53
6 -3 10 -37 10 -74 0 -49 4 -72 15 -81 10 -8 15 -31 15 -66 0 -29 5 -56 10
-59 6 -3 10 -30 10 -58 0 -30 7 -60 15 -71 8 -11 15 -41 15 -67 0 -26 5 -51
10 -54 6 -3 10 -26 10 -49 0 -27 6 -48 15 -56 9 -7 15 -29 15 -51 0 -21 5 -41
10 -44 6 -3 10 -26 10 -51 0 -24 5 -44 10 -44 6 0 10 -20 10 -44 0 -26 6 -48
15 -56 8 -7 15 -25 15 -41 0 -15 5 -31 10 -34 6 -3 10 -19 10 -34 0 -16 7 -34
15 -41 9 -7 15 -29 15 -51 0 -21 5 -41 10 -44 6 -3 10 -26 10 -49 0 -27 6 -48
15 -56 8 -7 15 -25 15 -41 0 -15 5 -31 10 -34 6 -3 10 -17 10 -30 0 -12 11
-43 25 -66 14 -24 25 -51 25 -60 0 -9 7 -30 15 -45 8 -16 12 -37 9 -47 -3 -10
1 -29 10 -42 9 -13 16 -31 16 -38 0 -8 7 -20 15 -27 9 -7 14 -19 11 -25 -2 -7
2 -25 10 -40 8 -15 14 -38 14 -51 0 -13 5 -24 10 -24 6 0 10 -8 10 -19 0 -10
7 -24 15 -31 8 -7 15 -22 15 -35 0 -24 26 -81 41 -90 5 -4 9 -22 9 -41 0 -19
5 -34 10 -34 6 0 10 -8 10 -19 0 -10 7 -24 15 -31 8 -7 15 -23 15 -35 0 -12
20 -62 45 -111 25 -48 45 -93 45 -100 0 -6 7 -17 15 -24 8 -7 15 -22 15 -33 0
-11 50 -120 110 -242 61 -122 110 -225 110 -228 0 -4 11 -25 25 -47 14 -22 25
-46 25 -53 0 -7 11 -24 25 -37 14 -13 25 -32 25 -42 0 -10 5 -18 10 -18 6 0
10 -8 10 -19 0 -10 7 -24 15 -31 8 -7 15 -18 15 -25 0 -7 7 -19 16 -26 9 -7
27 -37 40 -66 13 -28 29 -55 34 -58 6 -3 10 -14 10 -24 0 -10 9 -26 20 -36 11
-10 20 -24 20 -30 0 -7 7 -18 15 -25 8 -7 15 -20 15 -29 0 -10 11 -28 25 -41
14 -13 25 -29 25 -36 0 -6 7 -18 16 -25 9 -7 27 -36 39 -64 13 -27 35 -61 49
-74 15 -14 38 -48 52 -75 27 -55 55 -98 104 -161 17 -22 45 -62 63 -90 17 -27
46 -67 64 -88 18 -20 33 -43 33 -50 0 -7 16 -28 35 -47 19 -19 35 -38 35 -43
0 -6 18 -29 40 -53 22 -24 40 -49 40 -55 0 -7 21 -36 47 -65 97 -109 123 -142
123 -155 0 -8 38 -52 85 -99 47 -47 85 -89 85 -95 0 -5 38 -50 83 -100 46 -49
88 -98 93 -107 15 -28 595 -618 608 -618 6 0 58 -45 115 -100 57 -55 109 -100
115 -100 7 0 45 -34 86 -75 41 -41 79 -75 85 -75 6 0 27 -16 46 -36 18 -20 50
-46 69 -59 19 -12 55 -41 79 -64 24 -22 48 -41 54 -41 5 0 31 -18 56 -40 114
-98 129 -110 138 -110 5 0 24 -16 43 -35 19 -19 40 -35 47 -35 7 0 33 -18 57
-40 24 -22 48 -40 53 -40 5 0 20 -11 33 -25 13 -14 30 -25 38 -25 8 0 23 -11
34 -25 11 -14 27 -25 37 -25 10 0 28 -11 41 -25 13 -14 29 -25 35 -25 6 0 22
-11 35 -25 13 -14 30 -25 38 -25 8 0 25 -11 38 -25 13 -14 27 -25 32 -25 17 0
69 -30 87 -50 10 -11 26 -20 35 -20 9 0 25 -9 36 -21 10 -11 39 -30 64 -41 25
-11 52 -29 61 -39 9 -11 23 -19 31 -19 9 0 21 -7 28 -15 7 -8 21 -15 31 -15
11 0 19 -4 19 -10 0 -5 8 -10 18 -10 10 0 29 -11 42 -25 13 -14 29 -25 36 -25
6 0 17 -7 24 -15 7 -8 21 -15 31 -15 11 0 19 -4 19 -10 0 -5 6 -10 13 -10 21
0 80 -31 98 -52 9 -10 23 -18 31 -18 9 0 21 -7 28 -15 7 -8 25 -15 39 -15 16
0 37 -10 51 -25 13 -14 34 -25 47 -25 13 0 34 -9 46 -20 25 -24 74 -50 94 -50
7 0 13 -4 13 -8 0 -11 72 -42 98 -42 11 0 24 -4 27 -10 5 -8 32 -22 85 -44 8
-3 29 -15 45 -25 17 -11 40 -20 53 -20 12 -1 40 -12 62 -26 22 -14 44 -25 49
-25 5 0 22 -6 38 -14 15 -8 42 -20 58 -26 17 -7 42 -19 57 -26 14 -8 33 -14
42 -14 8 0 35 -11 60 -25 25 -14 52 -25 60 -25 8 0 36 -11 62 -25 26 -14 52
-25 59 -25 6 0 35 -11 63 -25 29 -14 65 -25 81 -25 17 0 33 -4 36 -10 3 -5 15
-10 26 -10 11 0 42 -11 69 -25 27 -14 57 -25 67 -25 10 0 27 -7 37 -15 11 -8
31 -15 45 -15 26 0 76 -14 126 -35 17 -7 50 -18 75 -25 25 -7 57 -18 72 -26
14 -8 42 -14 61 -14 20 0 38 -4 41 -9 3 -5 23 -11 43 -14 37 -4 90 -21 125
-38 10 -5 32 -9 50 -9 18 0 42 -7 52 -15 11 -8 37 -15 57 -15 21 0 41 -4 44
-10 3 -5 28 -10 54 -10 26 0 56 -7 67 -15 10 -8 36 -15 56 -15 20 0 40 -5 43
-10 3 -6 26 -10 51 -10 25 0 55 -5 67 -12 22 -12 86 -24 182 -34 28 -3 54 -10
59 -15 6 -5 42 -9 81 -9 47 0 78 -5 91 -15 12 -9 42 -14 81 -15 34 0 65 -4 68
-10 3 -5 39 -10 79 -10 48 0 79 -5 92 -15 13 -10 45 -14 106 -15 48 0 90 -4
93 -10 4 -6 69 -10 164 -10 123 0 161 -3 177 -15 15 -11 60 -14 231 -15 160 0
212 -3 216 -12 3 -10 9 -10 25 -1 13 8 23 9 27 3 8 -14 495 -13 495 0 0 6 90
10 249 10 209 0 251 2 261 15 10 12 41 15 161 15 88 0 150 4 154 10 3 6 46 10
94 10 67 0 92 4 101 15 9 11 33 15 91 15 43 0 81 5 84 10 3 6 34 10 68 10 39
1 69 6 81 15 13 10 44 15 92 15 40 0 76 4 79 10 3 5 35 10 69 10 44 0 67 5 76
15 8 10 31 15 66 15 29 0 56 5 59 10 3 5 23 10 44 10 22 0 44 6 51 15 7 9 29
15 51 15 21 0 41 5 44 10 3 6 30 10 58 10 30 0 60 7 71 15 11 8 41 15 67 15
26 0 51 5 54 10 3 6 16 10 29 10 12 0 31 7 42 15 10 8 34 15 52 15 18 0 40 4
50 9 33 16 87 34 122 38 19 3 40 9 45 14 6 4 22 10 37 13 14 2 35 9 46 15 12
6 32 11 46 11 13 0 37 6 53 14 15 8 48 20 73 26 25 7 57 18 72 26 14 8 35 14
46 14 12 0 24 5 27 10 3 6 16 10 29 10 12 0 31 7 42 15 10 8 31 15 46 15 15 0
30 5 33 10 3 6 16 10 29 10 12 0 31 7 42 15 10 8 26 15 35 15 8 0 47 16 86 35
39 19 80 35 90 35 10 0 27 7 37 15 11 8 27 15 36 15 9 0 40 11 68 25 29 14 56
25 60 25 5 0 32 11 60 25 29 14 57 25 62 25 6 0 66 27 133 60 68 33 128 60
133 60 16 0 566 279 589 299 11 10 49 32 85 51 36 18 72 38 80 45 8 7 47 29
85 50 39 21 84 48 100 60 17 12 46 29 66 38 19 9 43 25 54 37 10 11 24 20 30
20 7 0 18 6 24 14 7 8 26 21 44 30 44 22 67 37 100 64 16 12 33 22 38 22 5 0
20 10 33 21 14 12 33 27 44 33 48 28 99 66 121 90 14 14 32 26 41 26 9 0 27
11 40 25 13 14 29 25 35 25 6 0 22 11 35 25 13 14 29 25 36 25 7 0 28 16 47
35 19 19 40 35 48 35 8 0 37 23 64 50 27 28 54 50 60 50 6 0 26 16 45 35 19
19 39 35 46 35 7 0 31 18 54 40 23 22 47 40 54 40 6 0 45 34 86 75 41 41 79
75 85 75 6 0 44 34 85 75 41 41 79 75 85 75 6 0 91 81 190 181 99 99 190 185
203 190 12 4 22 15 22 24 0 9 11 20 25 25 14 5 25 16 25 25 0 8 79 96 176 195
97 99 186 194 197 212 11 18 52 66 91 106 39 40 73 79 75 85 2 7 26 37 52 68
27 31 49 61 49 66 0 5 20 29 45 53 25 24 45 50 45 58 0 7 23 37 50 66 28 29
50 58 50 63 0 6 18 30 40 54 22 24 40 49 40 55 0 5 16 25 35 44 19 19 35 42
35 51 0 10 11 26 25 37 14 11 25 26 25 34 0 8 16 29 35 48 19 19 35 41 35 50
0 9 11 27 25 40 14 13 25 29 25 35 0 6 11 22 25 35 14 13 25 29 25 35 0 22 29
70 60 100 16 16 30 34 30 41 0 7 10 25 22 41 13 15 32 46 43 68 11 22 30 53
42 68 13 16 23 33 23 38 0 6 15 33 33 62 18 29 36 59 40 67 4 8 16 29 26 45
11 17 20 37 20 46 1 8 12 26 26 39 14 13 25 31 25 41 0 10 4 21 10 24 5 3 17
21 26 40 9 19 20 35 25 35 5 0 9 13 9 29 0 16 7 34 15 41 8 7 15 19 15 27 0 7
9 24 21 36 11 12 26 36 33 52 40 90 47 105 56 110 6 3 10 15 10 26 0 10 5 19
10 19 6 0 10 8 10 19 0 10 7 24 15 31 8 7 15 21 15 31 0 11 5 19 10 19 6 0 10
8 10 18 0 9 7 26 15 36 8 11 15 27 15 36 0 9 16 49 35 88 19 40 51 104 70 144
19 39 35 78 35 86 0 7 7 28 16 45 31 59 34 67 34 85 0 10 7 27 15 38 8 10 15
27 15 37 0 9 5 17 10 17 6 0 10 11 10 24 0 12 11 44 25 70 14 26 25 58 25 70
0 13 7 29 15 36 8 7 15 25 15 41 0 16 5 29 10 29 6 0 10 11 10 25 0 14 5 25
10 25 6 0 10 13 10 29 0 16 7 34 15 41 8 7 15 25 15 41 0 15 5 31 10 34 6 3
10 19 10 34 0 16 7 34 15 41 8 7 15 25 15 41 0 15 4 31 10 34 5 3 10 18 10 33
0 15 7 36 15 46 8 11 15 30 15 42 0 13 5 26 10 29 6 3 10 22 10 41 0 20 5 45
12 57 6 12 16 42 20 67 5 25 12 59 15 75 3 17 10 35 15 42 5 6 11 24 14 40 3
15 9 32 15 38 5 5 9 26 9 46 0 21 5 41 10 44 5 3 10 28 10 54 0 26 7 56 15 67
8 10 15 38 15 62 0 23 5 42 10 42 6 0 10 20 10 44 0 26 6 48 15 56 9 7 15 29
15 51 0 21 5 41 10 44 6 3 10 32 10 64 0 33 7 72 15 87 8 16 15 54 15 84 0 31
4 60 9 65 5 6 12 35 15 65 16 161 22 200 34 212 8 8 12 44 12 105 0 55 4 93
10 93 6 0 10 36 10 88 0 62 4 94 15 108 11 15 14 54 15 181 0 97 4 164 10 168
6 4 10 97 10 245 0 199 3 241 15 254 12 12 15 49 15 204 0 156 -3 192 -15 202
-13 10 -15 51 -15 251 0 148 -4 240 -10 244 -6 4 -10 68 -10 159 0 124 -3 156
-15 166 -11 9 -15 34 -15 101 0 48 -4 91 -10 94 -5 3 -10 47 -10 96 0 67 -4
94 -15 105 -10 11 -15 36 -15 79 0 35 -4 67 -10 70 -5 3 -10 28 -10 54 0 27
-7 62 -15 77 -9 17 -15 56 -15 96 0 37 -4 70 -10 73 -5 3 -10 30 -10 58 0 29
-7 60 -14 70 -7 9 -11 28 -8 42 2 14 -3 36 -12 50 -9 13 -16 40 -16 59 0 19
-4 38 -10 41 -5 3 -10 30 -10 59 0 35 -5 58 -15 66 -9 8 -15 30 -15 56 0 24
-4 44 -10 44 -5 0 -10 20 -10 44 0 26 -6 48 -15 56 -8 7 -15 25 -15 41 0 15
-4 31 -10 34 -5 3 -10 23 -10 43 0 20 -7 46 -15 56 -8 11 -15 37 -15 58 0 21
-4 38 -10 38 -5 0 -10 15 -10 33 0 17 -7 41 -15 51 -8 10 -12 23 -9 28 3 5 -1
20 -10 33 -9 13 -16 35 -16 49 0 14 -4 28 -10 31 -5 3 -10 16 -10 29 0 12 -7
31 -15 42 -8 10 -15 31 -15 46 0 15 -4 30 -10 33 -5 3 -10 16 -10 29 0 12 -7
31 -15 42 -8 10 -15 31 -15 46 0 15 -4 30 -10 33 -5 3 -10 19 -10 34 0 16 -7
34 -15 41 -8 7 -15 25 -15 41 0 15 -4 31 -10 34 -5 3 -10 14 -10 25 0 10 -7
20 -15 24 -9 3 -15 18 -15 35 0 16 -4 33 -10 36 -5 3 -10 14 -10 24 0 10 -7
24 -15 31 -8 7 -15 21 -15 31 0 11 -4 19 -10 19 -5 0 -10 13 -10 29 0 17 -4
33 -10 36 -5 3 -10 14 -10 24 0 10 -7 24 -15 31 -8 7 -15 24 -16 39 0 14 -9
40 -20 56 -10 17 -21 37 -25 45 -3 8 -10 23 -15 32 -5 10 -9 27 -9 38 0 11
-11 38 -25 60 -14 22 -25 42 -25 46 0 6 -265 548 -281 574 -5 8 -13 24 -18 35
-5 11 -18 29 -30 39 -11 11 -21 27 -21 38 0 10 -4 18 -10 18 -5 0 -10 8 -10
19 0 10 -7 24 -15 31 -8 7 -12 16 -9 21 3 5 -6 20 -20 34 -15 14 -26 32 -26
39 0 8 -7 19 -15 26 -8 7 -15 21 -15 31 0 11 -4 19 -10 19 -5 0 -10 8 -10 18
0 10 -11 29 -25 42 -14 13 -25 28 -25 33 0 6 -11 25 -25 43 -14 18 -25 37 -25
42 0 4 -11 19 -25 32 -14 13 -25 29 -25 36 0 7 -10 25 -23 41 -13 15 -34 48
-46 73 -12 25 -38 65 -57 90 -19 25 -41 59 -48 75 -8 17 -24 39 -36 50 -12 11
-29 33 -37 49 -8 16 -24 38 -34 49 -10 12 -19 26 -19 32 0 6 -16 26 -35 45
-19 19 -35 40 -35 47 0 7 -18 33 -40 57 -22 24 -40 47 -40 53 0 5 -16 24 -35
43 -19 19 -35 41 -35 50 0 9 -22 38 -50 65 -27 27 -50 54 -50 60 0 5 -27 38
-60 73 -33 34 -60 67 -60 73 0 6 -31 43 -69 83 -37 39 -72 79 -77 88 -6 10
-50 61 -99 114 -50 53 -94 105 -100 115 -18 31 -450 469 -469 475 -11 4 -74
60 -140 125 -67 66 -126 119 -131 119 -6 0 -44 34 -85 75 -41 41 -79 75 -84
75 -5 0 -39 28 -76 63 -37 34 -93 80 -125 102 -31 22 -81 61 -110 88 -28 26
-56 47 -61 47 -6 0 -28 18 -49 40 -21 22 -45 40 -52 40 -8 0 -27 16 -44 35
-17 19 -39 35 -48 35 -10 0 -28 11 -41 25 -13 14 -29 25 -35 25 -6 0 -22 11
-35 25 -13 14 -29 25 -35 25 -6 0 -28 16 -48 35 -20 19 -41 35 -47 35 -5 0
-25 14 -43 30 -19 17 -39 30 -44 30 -6 0 -18 9 -28 20 -10 11 -27 20 -37 20
-10 0 -21 7 -24 15 -4 8 -14 15 -23 15 -10 0 -28 11 -41 25 -13 14 -29 25 -36
25 -6 0 -22 11 -35 25 -13 13 -31 25 -40 25 -9 0 -24 9 -34 20 -20 22 -71 50
-92 50 -7 0 -13 4 -13 9 0 5 -10 13 -22 16 -13 4 -32 15 -43 25 -11 10 -30 21
-42 25 -13 3 -23 11 -23 16 0 5 -6 9 -13 9 -20 0 -69 26 -94 50 -12 11 -29 20
-37 20 -8 0 -17 4 -21 9 -7 13 -64 41 -82 41 -7 0 -13 4 -13 8 0 5 -21 18 -47
29 -27 12 -58 31 -70 42 -12 12 -28 21 -35 21 -7 0 -22 7 -32 15 -11 8 -27 15
-36 15 -24 0 -73 26 -95 50 -10 11 -26 20 -37 20 -10 0 -18 4 -18 9 0 5 -14
13 -32 16 -18 4 -39 11 -48 15 -8 5 -32 16 -52 24 -20 9 -40 21 -43 26 -3 6
-15 10 -26 10 -10 0 -19 5 -19 10 0 6 -8 10 -19 10 -10 0 -24 7 -31 15 -7 8
-22 15 -35 15 -24 0 -81 26 -90 41 -4 5 -13 9 -21 9 -8 0 -32 11 -54 25 -22
14 -50 25 -62 25 -13 0 -32 7 -42 15 -11 8 -27 15 -37 15 -9 0 -47 16 -85 35
-37 19 -75 35 -84 35 -9 0 -25 7 -36 15 -10 8 -27 15 -37 15 -10 0 -40 11 -67
25 -27 14 -58 25 -69 25 -11 0 -23 5 -26 10 -3 6 -16 10 -29 10 -12 0 -31 7
-42 15 -10 8 -31 15 -46 15 -15 0 -30 5 -33 10 -3 6 -15 10 -27 10 -11 0 -32
6 -46 14 -15 8 -47 19 -72 26 -25 7 -57 18 -72 26 -14 8 -35 14 -46 14 -12 0
-24 5 -27 10 -3 6 -22 10 -41 10 -19 0 -49 7 -65 16 -17 8 -36 13 -43 11 -7
-3 -26 0 -42 7 -61 26 -100 39 -137 43 -20 3 -40 9 -43 14 -3 5 -23 9 -44 9
-21 0 -42 5 -45 10 -3 6 -23 10 -44 10 -20 0 -46 7 -57 15 -10 8 -36 15 -56
15 -20 0 -40 5 -43 10 -3 6 -23 10 -43 10 -20 0 -46 7 -56 15 -11 8 -41 15
-67 15 -26 0 -51 5 -54 10 -3 6 -30 10 -58 10 -30 0 -60 7 -71 15 -11 8 -41
15 -67 15 -26 0 -51 5 -54 10 -3 6 -34 10 -69 10 -36 0 -67 5 -74 12 -14 14
-103 26 -246 34 -54 3 -98 11 -110 20 -14 9 -48 14 -103 14 -45 0 -85 5 -88
10 -4 6 -55 10 -120 10 -63 0 -116 4 -119 9 -3 4 -69 10 -146 13 -85 3 -146
10 -153 17 -7 7 -66 11 -173 11 -98 0 -165 4 -169 10 -4 6 -93 10 -235 10
-142 0 -231 -4 -235 -10z m690 -870 c4 -6 66 -10 154 -10 120 0 151 -3 161
-15 10 -12 37 -15 126 -15 64 0 115 -4 119 -10 3 -5 46 -10 94 -10 56 0 91 -4
99 -12 7 -7 54 -16 105 -20 166 -13 236 -23 249 -36 6 -6 36 -12 64 -12 29 0
56 -4 59 -10 3 -5 32 -10 64 -10 35 0 65 -6 77 -15 10 -8 36 -15 56 -15 20 0
40 -4 43 -10 3 -5 30 -10 58 -10 30 0 60 -7 71 -15 11 -8 37 -15 57 -15 21 0
41 -4 44 -10 3 -5 23 -10 43 -10 20 0 46 -7 56 -15 11 -8 34 -15 52 -15 18 0
36 -4 39 -10 3 -5 22 -10 41 -10 19 0 49 -7 65 -16 17 -8 37 -13 44 -11 7 3
25 -1 40 -9 15 -8 38 -14 51 -14 12 0 26 -4 29 -10 3 -5 16 -10 29 -10 12 0
31 -7 42 -15 10 -8 36 -15 56 -15 20 0 40 -4 43 -10 3 -5 16 -10 29 -10 12 0
31 -7 42 -15 10 -8 31 -15 46 -15 15 0 30 -4 33 -10 3 -5 15 -10 27 -10 11 0
34 -7 51 -16 61 -32 67 -34 94 -34 16 0 48 -11 72 -25 23 -14 51 -25 61 -25 9
0 38 -11 64 -25 26 -14 56 -25 66 -25 10 0 22 -4 25 -10 3 -5 15 -10 26 -10
10 0 42 -11 71 -25 28 -14 57 -25 63 -25 6 0 55 -22 110 -50 55 -27 105 -50
111 -50 10 0 185 -83 234 -111 8 -4 78 -40 155 -79 262 -134 285 -146 308
-168 13 -12 31 -22 40 -22 9 0 19 -5 22 -10 3 -6 25 -19 48 -29 23 -11 52 -29
64 -40 12 -12 29 -21 36 -21 8 0 20 -7 27 -15 7 -8 18 -15 25 -15 6 0 20 -9
30 -20 10 -11 26 -20 35 -20 9 0 29 -13 45 -30 15 -16 31 -27 35 -25 4 3 13
-2 20 -10 7 -8 19 -15 27 -15 8 0 24 -11 35 -25 11 -14 27 -25 37 -25 10 0 26
-9 37 -21 10 -11 37 -29 59 -39 22 -10 58 -35 80 -54 22 -20 45 -36 51 -36 6
0 19 -9 29 -20 11 -12 34 -28 52 -37 18 -8 33 -19 33 -24 0 -5 6 -9 13 -9 8 0
27 -11 43 -25 16 -14 34 -25 39 -25 6 0 33 -22 60 -50 27 -27 56 -50 65 -50 8
0 37 -23 63 -50 27 -28 54 -50 61 -50 7 0 27 -16 46 -35 19 -19 39 -35 45 -35
6 0 40 -29 75 -65 35 -36 69 -65 75 -65 6 0 45 -34 87 -75 42 -41 82 -75 91
-75 8 0 81 -70 162 -156 82 -85 161 -162 177 -170 15 -8 28 -20 28 -27 0 -7
88 -100 195 -207 107 -107 195 -201 195 -209 0 -8 41 -56 91 -106 50 -51 98
-105 108 -121 10 -16 30 -40 45 -53 14 -14 26 -32 26 -41 0 -9 16 -32 36 -51
20 -18 47 -52 61 -73 14 -22 36 -50 50 -63 13 -14 34 -41 47 -61 13 -21 35
-48 50 -61 14 -14 26 -30 26 -37 0 -7 11 -26 25 -42 14 -17 25 -34 25 -39 0
-5 14 -22 31 -39 17 -16 38 -42 45 -59 8 -16 30 -50 49 -75 20 -25 42 -59 50
-76 7 -17 21 -36 29 -44 9 -7 16 -18 16 -24 0 -7 11 -23 25 -36 14 -13 25 -31
25 -40 0 -9 11 -27 25 -40 14 -13 25 -29 25 -36 0 -6 7 -18 16 -25 9 -7 27
-37 40 -66 13 -28 29 -55 34 -58 6 -3 10 -14 10 -24 0 -10 9 -26 21 -37 11
-10 31 -42 44 -70 13 -29 28 -55 34 -58 6 -4 40 -67 77 -141 36 -75 70 -138
74 -140 15 -9 170 -331 170 -353 0 -11 4 -24 10 -27 5 -3 16 -21 25 -40 20
-46 44 -96 54 -115 24 -45 31 -61 31 -75 0 -9 11 -36 25 -61 14 -25 25 -55 25
-68 0 -13 6 -29 13 -35 8 -6 19 -30 26 -53 7 -24 24 -67 37 -96 13 -29 24 -58
24 -66 0 -7 11 -33 23 -57 13 -24 26 -55 29 -69 7 -30 27 -88 39 -112 5 -10 9
-28 9 -42 0 -13 7 -29 15 -36 8 -7 15 -25 15 -41 0 -15 5 -31 10 -34 6 -3 10
-18 10 -33 0 -15 7 -35 14 -45 8 -10 12 -26 9 -36 -2 -9 3 -23 11 -30 10 -8
16 -29 16 -52 0 -21 5 -41 10 -44 6 -3 10 -19 10 -34 0 -15 7 -36 15 -47 8
-10 15 -36 15 -56 0 -21 5 -38 10 -38 6 0 10 -15 10 -34 0 -18 7 -39 15 -46
10 -8 15 -31 15 -66 0 -29 5 -56 10 -59 6 -3 10 -23 10 -43 0 -20 7 -46 15
-56 8 -11 15 -37 15 -57 0 -21 5 -41 10 -44 6 -3 10 -23 10 -43 0 -20 7 -46
15 -56 9 -12 15 -42 15 -72 0 -29 5 -56 10 -59 6 -3 10 -34 10 -69 0 -34 5
-67 10 -72 6 -6 13 -41 17 -78 3 -36 10 -69 14 -72 5 -3 9 -36 9 -74 0 -45 4
-70 12 -72 9 -3 12 -27 10 -79 -3 -59 0 -78 12 -88 13 -11 16 -37 16 -132 0
-68 4 -120 10 -124 6 -4 10 -61 10 -138 0 -98 4 -139 15 -161 17 -32 22 -216
6 -216 -5 0 -306 178 -668 396 -362 218 -824 497 -1028 619 -203 122 -723 435
-1155 695 -432 260 -985 593 -1230 740 -245 147 -776 467 -1180 710 -404 243
-935 563 -1180 710 -245 147 -764 460 -1155 695 -390 235 -910 548 -1155 695
-1046 629 -1957 1178 -2560 1540 -355 214 -888 534 -1185 713 -297 179 -540
330 -540 337 0 6 16 17 35 24 19 7 71 31 115 54 44 23 85 42 92 42 7 0 46 17
87 39 41 21 77 36 80 33 3 -2 17 3 30 12 14 9 34 16 44 16 11 0 40 11 66 25
26 14 53 25 60 25 7 0 34 11 60 25 26 14 58 25 70 25 13 0 29 7 36 15 7 8 25
15 41 15 16 0 29 5 29 10 0 6 13 10 28 10 15 0 33 5 38 10 6 6 21 13 35 15 22
4 50 15 91 36 10 5 30 9 46 9 15 0 37 7 48 15 10 8 31 15 46 15 15 0 30 5 33
10 3 6 16 10 29 10 12 0 31 7 42 15 10 8 36 15 56 15 20 0 40 5 43 10 3 6 19
10 34 10 16 0 34 7 41 15 7 9 29 15 51 15 21 0 41 5 44 10 3 6 26 10 49 10 27
0 48 6 56 15 7 9 29 15 51 15 21 0 41 5 44 10 3 6 23 10 43 10 20 0 46 7 56
15 11 8 41 15 67 15 26 0 51 5 54 10 3 6 30 10 59 10 35 0 58 5 66 15 8 10 31
15 66 15 30 0 54 5 54 10 0 6 27 10 60 10 33 0 60 4 60 10 0 6 28 10 63 10 40
0 70 5 83 15 13 10 45 14 106 15 48 0 90 5 93 10 3 6 46 10 94 10 67 0 92 4
101 15 10 12 37 15 126 15 64 0 115 4 119 10 4 6 66 10 154 10 120 0 151 3
161 15 11 13 76 15 471 15 294 0 460 -4 464 -10z m-4500 -952 c3 -13 10 -3466
20 -10393 3 -1991 7 -4135 10 -4765 3 -630 1 -1151 -4 -1158 -8 -13 -28 -4
-177 76 -10 6 -35 18 -54 26 -19 9 -42 20 -50 25 -8 4 -25 13 -38 20 -13 7
-41 21 -62 32 -20 11 -46 29 -55 39 -10 11 -25 20 -34 21 -9 0 -29 9 -46 20
-16 10 -39 23 -50 28 -11 5 -29 18 -39 30 -11 11 -24 21 -31 21 -19 0 -70 28
-90 50 -10 11 -26 20 -35 20 -10 0 -23 7 -30 15 -7 8 -18 15 -24 15 -7 0 -23
11 -36 25 -13 14 -29 25 -36 25 -6 0 -22 11 -35 25 -13 13 -29 25 -35 25 -19
0 -70 29 -89 50 -10 11 -25 20 -33 20 -8 0 -25 11 -38 25 -13 14 -29 25 -37
25 -7 0 -28 16 -47 35 -19 19 -39 35 -45 35 -5 0 -22 11 -37 25 -15 14 -33 25
-41 25 -7 0 -24 11 -37 25 -13 14 -28 25 -34 25 -6 0 -28 16 -48 35 -20 19
-41 35 -47 35 -6 0 -34 23 -62 50 -28 27 -57 50 -63 50 -7 0 -30 18 -51 40
-21 22 -44 40 -51 40 -6 0 -38 27 -70 60 -32 33 -64 60 -71 60 -7 0 -42 29
-76 65 -35 36 -70 65 -79 65 -9 0 -70 56 -136 125 -65 69 -126 125 -134 125
-16 0 -409 401 -420 428 -3 9 -47 57 -97 107 -50 49 -91 96 -91 103 0 8 -33
48 -73 89 -39 41 -74 80 -76 86 -2 7 -26 35 -52 64 -27 28 -49 58 -49 65 0 8
-18 32 -41 53 -22 22 -48 54 -56 70 -9 17 -34 51 -57 76 -55 62 -96 120 -96
134 0 6 -11 22 -25 35 -14 13 -25 28 -25 33 0 5 -20 32 -45 59 -25 28 -45 56
-45 62 0 7 -11 23 -25 36 -14 13 -25 29 -25 36 0 6 -7 17 -15 24 -8 7 -15 20
-15 29 0 10 -11 28 -25 41 -14 13 -25 29 -25 35 0 7 -9 20 -20 30 -11 10 -20
24 -20 31 0 7 -11 26 -25 42 -14 17 -25 34 -25 39 0 5 -11 20 -25 33 -14 13
-25 30 -25 38 0 7 -15 37 -34 65 -19 29 -51 83 -71 122 -19 38 -42 76 -50 85
-7 8 -45 80 -84 159 -39 80 -75 149 -81 155 -5 5 -10 17 -10 26 0 9 -8 24 -17
33 -10 9 -26 33 -37 54 -10 21 -24 50 -32 64 -7 14 -11 28 -9 31 3 3 -24 63
-60 134 -36 71 -65 139 -65 151 0 13 -4 23 -10 23 -5 0 -10 8 -10 19 0 10 -7
24 -15 31 -8 7 -15 16 -15 21 0 5 -11 33 -25 63 -14 30 -25 61 -25 70 0 8 -4
18 -10 21 -5 3 -10 16 -10 27 0 11 -18 58 -40 104 -22 46 -40 92 -40 103 0 11
-4 23 -10 26 -5 3 -10 16 -10 29 0 12 -7 31 -15 42 -8 10 -15 31 -15 47 0 15
-4 27 -10 27 -5 0 -10 12 -10 28 0 15 -7 35 -14 45 -8 10 -12 26 -9 36 2 9 -3
23 -11 30 -9 8 -16 29 -16 47 0 19 -4 34 -10 34 -5 0 -10 13 -10 29 0 16 -7
34 -15 41 -8 7 -15 25 -15 41 0 15 -4 31 -10 34 -5 3 -10 18 -10 33 0 15 -7
36 -15 46 -8 11 -15 37 -15 57 0 21 -4 41 -10 44 -5 3 -10 23 -10 43 0 20 -7
46 -15 56 -8 11 -15 34 -15 52 0 18 -5 36 -10 39 -6 3 -10 17 -10 31 0 14 -5
35 -12 47 -13 24 -25 81 -36 167 -4 30 -10 60 -14 65 -4 6 -9 35 -13 65 -3 30
-10 57 -16 58 -5 2 -9 28 -9 57 0 30 -4 57 -10 60 -5 3 -10 30 -10 59 0 35 -5
58 -15 66 -10 8 -15 31 -15 66 0 29 -4 56 -10 59 -6 3 -10 51 -10 108 -1 74
-5 107 -15 121 -10 14 -15 45 -15 102 0 46 -4 86 -10 89 -6 3 -10 51 -10 109
0 74 -4 107 -15 122 -11 14 -14 51 -15 155 0 78 -4 139 -10 145 -7 7 -9 169
-6 485 7 616 13 764 32 779 11 10 14 39 14 126 0 64 4 115 10 119 6 3 10 44
10 89 0 55 5 94 15 112 10 19 15 58 15 111 0 45 4 85 10 88 5 3 10 30 10 60 0
30 5 57 10 60 6 3 10 30 10 58 0 30 7 60 15 71 9 12 15 42 15 73 0 29 5 53 10
53 6 0 10 24 10 54 0 35 5 58 15 66 10 8 15 31 15 66 0 29 4 56 10 59 5 3 10
26 10 49 0 27 6 48 15 56 9 7 15 29 15 51 0 21 5 41 10 44 6 3 10 26 10 50 0
24 5 45 10 47 6 2 12 18 15 37 2 19 9 39 14 44 6 6 11 28 11 48 0 21 5 41 10
44 6 3 10 17 10 30 0 13 6 36 14 52 20 40 36 95 36 124 0 14 7 34 15 45 8 10
15 31 15 46 0 15 4 30 10 33 5 3 10 15 10 27 0 11 7 34 16 51 32 60 34 67 34
91 0 13 7 29 15 36 8 7 15 25 15 41 0 16 5 29 10 29 6 0 10 16 10 35 0 19 5
35 10 35 6 0 10 8 10 19 0 10 7 24 15 31 8 7 15 22 15 35 0 24 26 81 41 90 5
4 9 22 9 41 0 19 5 34 10 34 6 0 10 8 10 19 0 10 7 24 15 31 8 7 15 22 15 35
0 20 15 55 106 239 19 37 34 74 34 81 0 7 16 46 36 86 108 223 150 305 162
318 8 8 18 24 23 35 5 12 13 28 18 36 5 8 17 32 25 52 9 20 21 40 26 43 6 3
10 13 10 21 0 8 9 25 21 37 11 12 27 38 35 57 9 19 20 42 25 50 5 8 13 24 18
35 5 12 16 27 25 34 9 7 16 21 16 31 0 10 7 23 15 30 8 7 15 18 15 24 0 6 11
24 25 40 14 16 25 33 25 38 0 6 9 22 21 36 29 38 101 148 121 186 9 18 23 38
32 45 9 8 16 18 16 24 0 5 17 30 38 56 20 25 42 53 47 62 32 53 84 126 98 138
10 7 17 19 17 25 0 6 16 28 35 48 19 20 35 42 35 48 0 6 18 30 40 54 22 24 40
47 40 52 0 5 20 29 45 54 24 25 44 51 45 59 0 7 34 48 75 90 41 43 75 82 75
88 0 6 38 51 85 101 47 49 85 95 85 101 0 14 580 601 594 601 6 0 54 43 106
95 52 52 99 95 105 95 6 0 33 23 60 51 28 28 66 62 87 75 20 13 55 41 79 64
23 22 47 40 52 40 6 0 34 21 63 48 104 92 140 120 167 133 15 7 27 16 27 21 0
4 25 25 56 46 31 20 69 46 84 57 15 11 53 37 83 58 30 21 61 44 67 52 7 8 18
15 24 15 7 0 23 11 36 25 13 14 29 25 36 25 6 0 17 6 23 14 7 8 36 26 65 40
29 14 61 35 71 46 10 11 24 20 31 20 7 0 26 11 42 25 17 14 33 25 36 25 3 0
41 22 84 48 42 27 98 58 124 70 25 12 49 26 52 31 3 5 39 26 78 46 40 21 80
44 89 51 16 15 318 172 332 173 4 1 9 -5 12 -11z m2152 -4034 c81 -48 156 -94
166 -102 16 -14 17 -216 17 -3977 0 -3154 -3 -3964 -12 -3977 -12 -15 -309
-198 -322 -198 -3 0 -6 1877 -6 4170 0 2294 2 4170 5 4170 2 0 71 -39 152 -86z
m771 -450 c53 -32 165 -96 247 -144 83 -48 233 -136 335 -195 102 -59 237
-138 300 -175 106 -61 337 -196 780 -455 96 -56 263 -153 370 -215 107 -62
227 -132 265 -155 39 -23 104 -61 145 -85 41 -24 127 -73 190 -110 63 -37 198
-116 300 -175 102 -59 237 -138 300 -175 63 -37 349 -204 635 -370 286 -166
572 -333 635 -370 63 -37 196 -115 295 -172 99 -58 290 -170 425 -248 135 -79
313 -182 395 -230 83 -48 215 -125 295 -172 80 -46 145 -90 145 -97 0 -12 -72
-57 -600 -378 -104 -64 -239 -146 -300 -183 -60 -37 -245 -150 -410 -250 -165
-100 -349 -213 -410 -250 -60 -37 -175 -107 -255 -155 -80 -49 -212 -130 -295
-180 -82 -51 -267 -163 -410 -250 -235 -143 -669 -407 -960 -585 -60 -37 -175
-107 -255 -155 -80 -49 -212 -130 -295 -180 -229 -140 -418 -255 -545 -332
-158 -96 -312 -190 -530 -323 -102 -62 -237 -144 -300 -183 -63 -38 -164 -100
-225 -137 -251 -154 -363 -220 -374 -220 -8 0 -11 984 -11 3680 0 2570 3 3680
11 3680 5 0 54 -25 107 -56z m10252 -3775 c0 -275 -4 -447 -10 -459 -6 -10
-13 -83 -16 -162 -3 -79 -10 -147 -15 -153 -5 -5 -9 -60 -9 -121 0 -65 -4
-115 -10 -119 -5 -3 -10 -41 -10 -84 0 -58 -4 -82 -15 -91 -10 -9 -15 -32 -15
-76 0 -34 -4 -66 -10 -69 -5 -3 -10 -30 -10 -59 0 -28 -6 -58 -12 -64 -7 -7
-16 -50 -20 -95 -12 -137 -23 -206 -36 -219 -7 -7 -12 -29 -12 -49 0 -21 -4
-41 -10 -44 -5 -3 -10 -26 -10 -50 0 -24 -4 -46 -9 -49 -5 -3 -12 -26 -15 -51
-4 -24 -11 -47 -17 -50 -5 -4 -9 -30 -9 -60 0 -30 -4 -57 -10 -60 -5 -3 -10
-19 -10 -34 0 -16 -7 -34 -15 -41 -8 -7 -15 -25 -15 -41 0 -15 -4 -31 -10 -34
-5 -3 -10 -18 -10 -33 0 -15 -7 -36 -15 -46 -8 -11 -15 -34 -15 -52 0 -18 -4
-36 -10 -39 -5 -3 -10 -25 -10 -48 0 -23 -7 -51 -15 -61 -8 -11 -15 -30 -15
-42 0 -13 -4 -26 -10 -29 -5 -3 -10 -16 -10 -29 0 -13 -11 -44 -25 -70 -14
-26 -25 -58 -25 -71 0 -13 -4 -27 -10 -30 -5 -3 -10 -19 -10 -34 0 -16 -7 -34
-15 -41 -8 -7 -15 -23 -15 -36 0 -12 -11 -44 -25 -70 -14 -26 -25 -58 -25 -70
0 -13 -4 -24 -10 -24 -5 0 -10 -13 -10 -29 0 -16 -7 -34 -15 -41 -8 -7 -15
-21 -15 -31 0 -10 -4 -21 -10 -24 -5 -3 -10 -15 -10 -26 0 -10 -4 -19 -10 -19
-5 0 -12 -12 -16 -27 -6 -28 -19 -63 -35 -95 -5 -10 -9 -25 -9 -33 0 -13 -31
-82 -61 -135 -5 -8 -16 -31 -25 -50 -19 -42 -162 -338 -173 -360 -4 -8 -15
-28 -23 -45 -9 -16 -23 -46 -32 -65 -9 -19 -21 -42 -25 -50 -5 -8 -16 -31 -25
-51 -8 -19 -24 -43 -36 -54 -11 -10 -20 -26 -20 -35 0 -10 -7 -23 -15 -30 -8
-7 -15 -18 -15 -25 0 -6 -9 -20 -20 -30 -11 -10 -20 -26 -20 -36 0 -10 -4 -20
-9 -24 -6 -3 -22 -30 -36 -60 -15 -30 -33 -59 -41 -66 -8 -6 -14 -17 -14 -23
0 -7 -11 -23 -25 -36 -14 -13 -25 -30 -25 -37 0 -16 -39 -79 -68 -109 -10 -11
-28 -38 -38 -60 -23 -50 -87 -144 -114 -169 -11 -10 -20 -24 -20 -32 0 -7 -18
-33 -40 -57 -22 -24 -40 -47 -40 -51 0 -5 -11 -23 -25 -41 -14 -18 -25 -37
-25 -41 0 -5 -16 -24 -35 -43 -19 -19 -35 -41 -35 -50 0 -9 -22 -38 -50 -65
-27 -27 -50 -54 -50 -60 0 -6 -16 -26 -35 -45 -19 -19 -35 -40 -35 -48 0 -8
-38 -54 -85 -101 -47 -48 -85 -92 -85 -97 0 -6 -33 -46 -72 -89 -40 -43 -76
-85 -79 -94 -9 -23 -649 -671 -663 -671 -6 0 -38 -27 -71 -60 -33 -33 -64 -60
-70 -60 -6 0 -31 -21 -55 -46 -48 -48 -235 -204 -246 -204 -4 0 -31 -21 -60
-47 -94 -84 -138 -120 -164 -133 -14 -7 -38 -25 -55 -39 -16 -15 -40 -34 -51
-42 -136 -90 -173 -116 -196 -137 -15 -14 -36 -30 -46 -36 -11 -6 -42 -26 -69
-45 -26 -19 -68 -45 -93 -59 -25 -13 -54 -32 -65 -42 -11 -10 -31 -24 -46 -31
-38 -21 -86 -50 -138 -85 -25 -16 -85 -49 -132 -73 -48 -23 -95 -51 -104 -62
-10 -10 -24 -19 -32 -19 -7 0 -31 -11 -53 -25 -22 -14 -42 -25 -45 -25 -4 0
-21 -11 -39 -25 -18 -14 -39 -25 -47 -25 -18 0 -196 -87 -204 -99 -7 -12 -82
-51 -97 -51 -6 0 -55 -22 -109 -50 -53 -27 -104 -50 -111 -50 -8 0 -56 -23
-108 -50 -52 -28 -103 -50 -115 -50 -12 0 -26 -5 -31 -10 -6 -6 -22 -13 -36
-15 -14 -3 -55 -21 -92 -40 -37 -19 -75 -35 -85 -35 -9 0 -26 -7 -37 -15 -10
-8 -29 -15 -41 -15 -12 0 -25 -5 -28 -10 -3 -6 -14 -10 -24 -10 -10 0 -24 -7
-31 -15 -7 -8 -25 -15 -41 -15 -15 0 -31 -4 -34 -10 -3 -5 -17 -10 -30 -10
-13 0 -30 -7 -39 -15 -8 -8 -28 -15 -45 -15 -17 0 -31 -4 -31 -10 0 -5 -20
-10 -44 -10 -25 0 -47 -4 -51 -9 -9 -15 -66 -41 -90 -41 -13 0 -28 -7 -35 -15
-7 -9 -29 -15 -51 -15 -21 0 -41 -5 -44 -10 -3 -6 -26 -10 -49 -10 -27 0 -48
-6 -56 -15 -7 -8 -25 -15 -41 -15 -16 0 -29 -4 -29 -10 0 -5 -20 -10 -44 -10
-26 0 -48 -6 -56 -15 -7 -8 -25 -15 -41 -15 -15 0 -31 -5 -34 -10 -3 -6 -31
-10 -61 -10 -30 0 -54 -4 -54 -10 0 -5 -24 -10 -54 -10 -35 0 -58 -5 -66 -15
-8 -9 -30 -15 -56 -15 -24 0 -44 -4 -44 -10 0 -5 -24 -10 -54 -10 -35 0 -58
-5 -66 -15 -8 -10 -31 -15 -66 -15 -29 0 -56 -5 -59 -10 -3 -6 -41 -10 -84
-10 -58 0 -82 -4 -91 -15 -9 -10 -32 -15 -76 -15 -34 0 -66 -5 -69 -10 -3 -6
-41 -10 -84 -10 -58 0 -82 -4 -91 -15 -9 -11 -33 -15 -86 -15 -40 0 -76 -4
-79 -10 -4 -6 -71 -10 -169 -10 -133 0 -166 -3 -176 -15 -19 -22 -1295 -22
-1324 0 -15 12 -53 15 -167 15 -88 0 -150 4 -154 10 -3 6 -45 10 -93 10 -61 1
-93 5 -106 15 -13 10 -44 15 -92 15 -40 0 -76 5 -79 10 -3 6 -32 10 -64 10
-33 0 -72 7 -87 15 -17 9 -56 15 -94 15 -37 0 -70 4 -75 9 -6 5 -34 12 -62 15
-29 3 -77 9 -105 12 -29 3 -59 11 -66 17 -13 10 -61 21 -157 36 -27 4 -60 12
-72 19 -12 7 -37 12 -57 12 -19 0 -38 4 -41 10 -3 5 -23 10 -43 10 -20 0 -46
7 -56 15 -11 8 -31 15 -45 15 -29 0 -84 16 -124 36 -16 8 -44 14 -62 14 -19 0
-37 5 -40 10 -3 6 -19 10 -35 10 -16 0 -32 5 -35 10 -3 6 -14 10 -23 10 -9 0
-30 7 -46 15 -15 8 -39 15 -52 15 -12 0 -25 4 -29 9 -3 6 -26 13 -50 17 -25 3
-48 10 -51 15 -3 5 -16 9 -29 9 -13 0 -45 11 -71 25 -26 14 -55 25 -66 25 -10
0 -26 4 -36 9 -41 21 -94 41 -107 41 -8 0 -35 11 -61 25 -26 14 -54 25 -62 25
-8 0 -36 11 -64 25 -27 14 -58 25 -68 25 -10 0 -22 5 -25 10 -3 6 -15 10 -25
10 -10 0 -62 23 -115 50 -53 28 -102 50 -108 50 -21 -1 -186 85 -187 96 0 7
57 49 128 95 208 135 394 257 617 403 281 185 452 296 750 491 393 257 522
341 790 517 138 90 295 193 350 228 55 36 175 115 267 175 92 61 227 149 300
196 121 79 285 186 643 421 186 122 412 269 545 356 63 42 174 114 245 160
140 92 333 218 485 317 52 34 183 120 290 190 107 70 240 157 295 193 160 104
350 229 485 317 69 45 177 116 240 157 111 72 224 146 570 373 91 60 217 142
280 183 308 201 546 356 730 477 91 60 217 142 280 183 63 42 185 121 270 177
85 56 202 132 260 170 58 38 164 107 235 153 72 47 186 122 255 167 69 45 190
125 270 177 80 52 190 124 245 160 55 36 188 123 295 193 107 70 240 157 295
193 55 36 159 104 230 150 151 99 350 229 485 317 52 34 196 128 320 209 229
151 390 256 675 442 88 57 207 135 265 173 58 38 213 139 345 226 132 86 256
167 275 181 19 13 40 24 47 24 10 0 13 -93 13 -441z"/>
</g>
</svg>
